<svg id="Layer_1" data-name="Layer 1" xmlns="http://www.w3.org/2000/svg" viewBox="0 0 298 345.1"><defs><style>.cls-1{fill:#dedede;}.cls-2{fill:#d22856;}</style></defs><title>Монтажная область 1</title><path class="cls-1" d="M264.57,102.06l5.36-5.36C277.64,89,279,77.76,273,71.76s-17.22-4.59-24.93,3.13l-5.39,5.39A148.3,148.3,0,0,0,168,48.3V38.71h7.66c10.91,0,19.84-8.71,19.84-19.36S186.57,0,175.66,0H122.34C111.43,0,102.5,8.71,102.5,19.36s8.93,19.36,19.84,19.36H130V48.3a149,149,0,1,0,134.57,53.76ZM149,306.26A110.17,110.17,0,1,1,259.17,196.1,110.17,110.17,0,0,1,149,306.26Z"/><path class="cls-2" d="M149,69A126.5,126.5,0,1,0,275.5,195.5,126.5,126.5,0,0,0,149,69Zm0,237.22A110.17,110.17,0,1,1,259.17,196,110.17,110.17,0,0,1,149,306.22Z"/><path class="cls-2" d="M143.93,235.67H83.26V222.9l21.79-22q9.68-9.91,12.64-13.74A30.22,30.22,0,0,0,122,180a18.06,18.06,0,0,0,1.31-6.77q0-5.22-2.88-7.78a11.17,11.17,0,0,0-7.69-2.55,22.11,22.11,0,0,0-9.8,2.32A50.55,50.55,0,0,0,93,171.85L83,160a65.1,65.1,0,0,1,10.63-7.72,39,39,0,0,1,9.2-3.47A47.18,47.18,0,0,1,114,147.63a33,33,0,0,1,14.37,3,22.92,22.92,0,0,1,9.68,8.31,22.08,22.08,0,0,1,3.44,12.23,29.93,29.93,0,0,1-2.11,11.25,43.19,43.19,0,0,1-6.53,10.77q-4.42,5.52-15.58,15.73L106.11,219.4v.83h37.82Z"/><path class="cls-2" d="M215.28,217.68H204.84v18H186.91v-18h-37V204.92l38.05-56h16.92v54.56h10.45Zm-28.38-14.25V188.71q0-3.68.3-10.69t.47-8.13h-.47a66.2,66.2,0,0,1-5.28,9.5l-15.91,24Z"/></svg>