<svg id="Layer_1" data-name="Layer 1" xmlns="http://www.w3.org/2000/svg" viewBox="0 0 298 345.1"><defs><style>.cls-2{fill:#d22856}</style></defs><path d="M264.57 102.06l5.36-5.36C277.64 89 279 77.76 273 71.76s-17.22-4.59-24.93 3.13l-5.39 5.39A148.3 148.3 0 00168 48.3v-9.59h7.66c10.91 0 19.84-8.71 19.84-19.36S186.57 0 175.66 0h-53.32c-10.91 0-19.84 8.71-19.84 19.36s8.93 19.36 19.84 19.36H130v9.58a149 149 0 10134.57 53.76zM149 306.26A110.17 110.17 0 11259.17 196.1 110.17 110.17 0 01149 306.26z" fill="#dedede"/><path class="cls-2" d="M149 69a126.5 126.5 0 10126.5 126.5A126.5 126.5 0 00149 69zm0 237.22A110.17 110.17 0 11259.17 196 110.17 110.17 0 01149 306.22z"/><path class="cls-2" d="M143.93 235.67H83.26V222.9l21.79-22q9.68-9.91 12.64-13.74A30.22 30.22 0 00122 180a18.06 18.06 0 001.31-6.77q0-5.22-2.88-7.78a11.17 11.17 0 00-7.69-2.55 22.11 22.11 0 00-9.8 2.32 50.55 50.55 0 00-9.94 6.63L83 160a65.1 65.1 0 0110.63-7.72 39 39 0 019.2-3.47 47.18 47.18 0 0111.17-1.18 33 33 0 0114.37 3 22.92 22.92 0 019.68 8.31 22.08 22.08 0 013.44 12.23 29.93 29.93 0 01-2.11 11.25 43.19 43.19 0 01-6.53 10.77q-4.42 5.52-15.58 15.73l-11.16 10.48v.83h37.82zM215.28 217.68h-10.44v18h-17.93v-18h-37v-12.76l38.05-56h16.92v54.56h10.45zm-28.38-14.25v-14.72q0-3.68.3-10.69t.47-8.13h-.47a66.2 66.2 0 01-5.28 9.5l-15.91 24z"/></svg>