<svg xmlns="http://www.w3.org/2000/svg" width="19.7" height="19.7"><path fill="#D22856" d="M9.85 0c-3.51 0-7.03.63-8.3 1.88C.49 2.92.13 4.75.02 5.9L0 6.08c0 .45.37.82.82.82a493.34 493.34 0 003.3-.28c.45-.01.8-.37.8-.82V4.2c0-.5.41-.9.91-.9h8.03c.5 0 .9.4.9.9l.01 1.61c0 .45.36.81.8.82l.09.02 3.22.26a.82.82 0 00.8-.99c-.12-1.16-.47-3-1.53-4.03C16.87.63 13.35 0 9.85 0zm0 10.67a1.64 1.64 0 100 3.28 1.64 1.64 0 000-3.28zm-1.23-3.7V5.96a1.03 1.03 0 10-2.05 0v1.02L1.03 12.9c-.38.37-.62.9-.62 1.47V16c0 .91.73 1.65 1.64 1.65h.41v1.02a1.03 1.03 0 102.05 0v-1.02h10.67v1.02a1.03 1.03 0 102.05 0v-1.02h.41c.9 0 1.64-.74 1.64-1.65v-1.64c0-.58-.23-1.1-.61-1.47l-5.54-5.92V5.96a1.03 1.03 0 10-2.05 0v1.02H8.62zm1.23 2.06a3.28 3.28 0 110 6.56 3.28 3.28 0 010-6.56z"/></svg>