<svg fill="#D22856" xmlns="http://www.w3.org/2000/svg" width="17.99" height="13.97"><path d="M14.91 1.81c1.2-1 .9-1.81-.65-1.81H3.73c-1.56 0-1.85.82-.66 1.81l3.75 3.12c1.2 1 3.15 1 4.35 0l3.74-3.12z"/><path d="M11.91 7.04L9.7 8.88l-.02.01c-.08.06-.16.1-.24.14l-.1.05c-.11.03-.22.05-.34.06h-.02c-.11 0-.22-.03-.33-.06l-.1-.05a1.07 1.07 0 01-.24-.14l-.02-.01-2.21-1.84-3.9-3.24C.98 2.8 0 3.26 0 4.82v6.31a2.84 2.84 0 002.83 2.84h12.32A2.84 2.84 0 0018 11.13V4.82c0-1.56-.98-2.02-2.18-1.02l-3.9 3.24z"/></svg>