<svg fill="currentColor" version="1.0" xmlns="http://www.w3.org/2000/svg" width="49.95" height="24.01"><path d="M1.14 0C.5 0 0 .43 0 1.01v1.98C0 3.55.5 4 1.14 4H48.8c.63 0 1.14-.43 1.14-1V1c0-.56-.5-1.01-1.14-1.01H1.14zm0 10C.5 10 0 10.43 0 11.01V13C0 13.55.5 14 1.14 14H48.8c.63 0 1.14-.42 1.14-1V11c0-.55-.5-1-1.14-1H1.14zm0 10C.5 20 0 20.43 0 21.02V23c0 .55.5 1 1.14 1H48.8c.63 0 1.14-.42 1.14-1v-1.98c0-.56-.5-1.02-1.14-1.02H1.14z"/><path d="M1.14 0C.5 0 0 .43 0 1.01v1.98C0 3.55.5 4 1.14 4H48.8c.63 0 1.14-.43 1.14-1V1c0-.56-.5-1.01-1.14-1.01H1.14zm0 10C.5 10 0 10.43 0 11.01V13C0 13.55.5 14 1.14 14H48.8c.63 0 1.14-.42 1.14-1V11c0-.55-.5-1-1.14-1H1.14zm0 10C.5 20 0 20.43 0 21.02V23c0 .55.5 1 1.14 1H48.8c.63 0 1.14-.42 1.14-1v-1.98c0-.56-.5-1.02-1.14-1.02H1.14z"/></svg>