<svg fill="#D22856" version="1.0" xmlns="http://www.w3.org/2000/svg" width="12.54" height="11.99" viewBox="521.94 473.06 12.54 11.99"><path d="M528.17 485.06a.74.74 0 01-.55-.25 318.9 318.9 0 01-4.86-5.58 3.8 3.8 0 015.46-5.27 3.8 3.8 0 016.26 2.9c0 .91-.31 1.75-.9 2.38l-4.85 5.56a.73.73 0 01-.56.25zm-4.24-6.71c.2.25 2.47 2.84 4.24 4.86l4.33-4.95c.34-.37.52-.86.52-1.4a2.33 2.33 0 00-2.33-2.33c-.73 0-1.43.35-1.9.95a.76.76 0 01-.59.27.73.73 0 01-.58-.3 2.33 2.33 0 00-1.88-.92 2.33 2.33 0 00-1.83 3.8l.02.02z"/></svg>