<svg xmlns="http://www.w3.org/2000/svg" width="43" height="47"><path fill="#A4C639" d="M34.14 14H7.94l-.01.34V33.1a3.6 3.6 0 003.31 3.62v7.43a2.88 2.88 0 105.77 0v-7.42h8.06v7.42a2.88 2.88 0 105.77 0v-7.43a3.6 3.6 0 003.32-3.63V14.34c0-.11 0-.22-.02-.33zM2.89 15.68c1.59 0 2.88 1.3 2.88 2.88v12.38a2.89 2.89 0 11-5.77 0V18.56c0-1.59 1.3-2.88 2.89-2.88zM39.2 15.68c1.6 0 2.88 1.3 2.88 2.88v12.38a2.88 2.88 0 11-5.77 0V18.56c0-1.59 1.3-2.88 2.89-2.88zM8.03 11.97h26.03a10.47 10.47 0 00-3.2-7.28L33.32.46a.3.3 0 00-.53-.3l-2.36 4.1c-2.06-1.85-6.25-3.4-9.38-3.4-3.01 0-7.32 1.55-9.37 3.4L9.3.16a.3.3 0 00-.53.3l2.44 4.23a10.48 10.48 0 00-3.18 7.28zm17.3-5.17c0-.8.66-1.46 1.48-1.46.83 0 1.5.65 1.5 1.46 0 .8-.66 1.46-1.5 1.47-.81 0-1.48-.65-1.49-1.46zm-11.15 0c0-.8.67-1.46 1.49-1.46s1.5.65 1.5 1.46c0 .8-.67 1.46-1.5 1.47-.82 0-1.49-.65-1.49-1.46z"/></svg>