<svg version="1.0" xmlns="http://www.w3.org/2000/svg" width="46.21" height="56.75"><path fill="#FFF" d="M38.6 30.15c.07 8.59 7.53 11.45 7.61 11.48-.06.2-1.19 4.08-3.93 8.07-2.36 3.46-4.82 6.9-8.69 6.98-3.8.07-5.02-2.26-9.36-2.26s-5.7 2.19-9.3 2.32c-3.73.15-6.57-3.73-8.96-7.18-4.87-7.05-8.6-19.9-3.6-28.6a13.9 13.9 0 0111.75-7.1c3.66-.08 7.12 2.46 9.36 2.46 2.24 0 6.45-3.05 10.87-2.6 1.85.08 7.04.75 10.38 5.63-.27.17-6.2 3.62-6.14 10.8M31.45 9.06c1.99-2.4 3.32-5.74 2.96-9.06-2.86.12-6.32 1.9-8.36 4.3-1.84 2.13-3.45 5.52-3.02 8.78 3.19.25 6.44-1.62 8.42-4.02"/></svg>