<svg xmlns="http://www.w3.org/2000/svg" xmlns:xlink="http://www.w3.org/1999/xlink"><symbol id="icon-editor-contrast" viewBox="-35.42 -7.96 31.92 31.92"><path fill="#231F20" d="M-19.46-3.96C-12.86-3.96-7.5 1.41-7.5 8s-5.37 11.96-11.96 11.96S-31.42 14.59-31.42 8s5.36-11.96 11.96-11.96m0-4a15.96 15.96 0 100 31.92 15.96 15.96 0 000-31.92z"/><path d="M-19.46 16.33a8.52 8.52 0 100-17.04"/></symbol><symbol id="icon-editor-crop"><path fill="none" d="M0 0h48v48H0V0z"/><path d="M34 30h4V14a4 4 0 00-4-4H18v4h16v16zm-20 4V2h-4v8H2v4h8v20a4 4 0 004 4h20v8h4v-8h8v-4H14z"/></symbol><symbol id="icon-editor-diagram-fill" viewBox="22.5 69.05 253 253"><path d="M149 69.05c-69.86 0-126.5 56.63-126.5 126.5 0 69.86 56.64 126.5 126.5 126.5s126.5-56.64 126.5-126.5c0-69.87-56.64-126.5-126.5-126.5zm0 237.21c-60.84 0-110.17-49.32-110.17-110.16 0-60.85 49.33-110.17 110.17-110.17s110.17 49.32 110.17 110.17c0 60.84-49.33 110.16-110.17 110.16z"/></symbol><symbol id="icon-editor-fill"><path fill="none" d="M0 0h48v48H0V0z"/><path d="M33.12 17.88L15.24 0l-2.83 2.83 4.76 4.76L6.88 17.88a3 3 0 000 4.24l11 11c.58.59 1.35.88 2.12.88s1.54-.29 2.12-.88l11-11a3 3 0 000-4.24zM10.41 20L20 10.42 29.59 20H10.41zM38 23s-4 4.33-4 7a4 4 0 108 0c0-2.67-4-7-4-7zM0 40h48v3H0z"/></symbol><symbol id="icon-facebook"><path d="M6.28 3.36h2.4V0H5.8C2.65.18 1.54 2.39 1.94 6.12H0v3.51h1.96v9.31h3.83v-9.3h2.86V6.1H5.8c-.03-1.04-.04-2.4.49-2.75z"/></symbol><symbol id="icon-heart" viewBox="521.94 473.06 12.54 11.99"><path d="M528.17 485.06a.74.74 0 01-.55-.25 318.9 318.9 0 01-4.86-5.58 3.8 3.8 0 015.46-5.27 3.8 3.8 0 016.26 2.9c0 .91-.31 1.75-.9 2.38l-4.85 5.56a.73.73 0 01-.56.25zm-4.24-6.71c.2.25 2.47 2.84 4.24 4.86l4.33-4.95c.34-.37.52-.86.52-1.4a2.33 2.33 0 00-2.33-2.33c-.73 0-1.43.35-1.9.95a.76.76 0 01-.59.27.73.73 0 01-.58-.3 2.33 2.33 0 00-1.88-.92 2.33 2.33 0 00-1.83 3.8l.02.02z"/></symbol><symbol id="icon-mail"><path d="M14.91 1.81c1.2-1 .9-1.81-.65-1.81H3.73c-1.56 0-1.85.82-.66 1.81l3.75 3.12c1.2 1 3.15 1 4.35 0l3.74-3.12z"/><path d="M11.91 7.04L9.7 8.88l-.02.01c-.08.06-.16.1-.24.14l-.1.05c-.11.03-.22.05-.34.06h-.02c-.11 0-.22-.03-.33-.06l-.1-.05a1.07 1.07 0 01-.24-.14l-.02-.01-2.21-1.84-3.9-3.24C.98 2.8 0 3.26 0 4.82v6.31a2.84 2.84 0 002.83 2.84h12.32A2.84 2.84 0 0018 11.13V4.82c0-1.56-.98-2.02-2.18-1.02l-3.9 3.24z"/></symbol><symbol id="icon-map-marker"><circle fill="#FFF" cx="17.99" cy="17.99" r="17.99"/><circle fill="#D22856" cx="17.99" cy="17.99" r="7.87"/></symbol><symbol id="icon-menu-burger"><path d="M1.14 0C.5 0 0 .43 0 1.01v1.98C0 3.55.5 4 1.14 4H48.8c.63 0 1.14-.43 1.14-1V1c0-.56-.5-1.01-1.14-1.01H1.14zm0 10C.5 10 0 10.43 0 11.01V13c0 .55.5 1 1.14 1H48.8c.63 0 1.14-.42 1.14-1v-2c0-.55-.5-1-1.14-1H1.14zm0 10C.5 20 0 20.43 0 21.02V23c0 .55.5 1 1.14 1H48.8c.63 0 1.14-.42 1.14-1v-1.98c0-.56-.5-1.02-1.14-1.02H1.14z"/><path d="M1.14 0C.5 0 0 .43 0 1.01v1.98C0 3.55.5 4 1.14 4H48.8c.63 0 1.14-.43 1.14-1V1c0-.56-.5-1.01-1.14-1.01H1.14zm0 10C.5 10 0 10.43 0 11.01V13c0 .55.5 1 1.14 1H48.8c.63 0 1.14-.42 1.14-1v-2c0-.55-.5-1-1.14-1H1.14zm0 10C.5 20 0 20.43 0 21.02V23c0 .55.5 1 1.14 1H48.8c.63 0 1.14-.42 1.14-1v-1.98c0-.56-.5-1.02-1.14-1.02H1.14z"/></symbol><symbol id="icon-menu-cross"><path d="M15.09 11.93l8.56-8.56c.29-.29.29-.76 0-1.06L21.55.22a.75.75 0 00-1.06 0l-8.56 8.56L3.37.22a.77.77 0 00-1.06 0L.22 2.32c-.3.29-.3.76 0 1.05l8.56 8.56L.22 20.5c-.3.3-.3.77 0 1.06l2.1 2.1a.74.74 0 001.05 0l8.56-8.56 8.56 8.56a.75.75 0 001.06 0l2.1-2.1c.29-.29.29-.77 0-1.06l-8.56-8.56z"/></symbol><symbol id="icon-no"><path d="M15.5 13.38L26.3 2.56A1.5 1.5 0 1024.2.44L13.38 11.26 2.56.44A1.5 1.5 0 10.44 2.56l10.81 10.81L.44 24.2a1.5 1.5 0 102.12 2.12L13.38 15.5l10.81 10.8a1.5 1.5 0 002.12 0 1.5 1.5 0 000-2.12L15.5 13.38z"/></symbol><symbol id="icon-phone"><path fill="#D22856" d="M9.85 0c-3.51 0-7.03.63-8.3 1.88C.49 2.92.13 4.75.02 5.9L0 6.08c0 .45.37.82.82.82a493.34 493.34 0 003.3-.28c.45-.01.8-.37.8-.82V4.2c0-.5.41-.9.91-.9h8.03c.5 0 .9.4.9.9l.01 1.61c0 .45.36.81.8.82l.09.02 3.22.26a.82.82 0 00.8-.99c-.12-1.16-.47-3-1.53-4.03C16.87.63 13.35 0 9.85 0zm0 10.67a1.64 1.64 0 100 3.28 1.64 1.64 0 000-3.28zm-1.23-3.7V5.96a1.03 1.03 0 10-2.05 0v1.02L1.03 12.9c-.38.37-.62.9-.62 1.47V16c0 .91.73 1.65 1.64 1.65h.41v1.02a1.03 1.03 0 102.05 0v-1.02h10.67v1.02a1.03 1.03 0 102.05 0v-1.02h.41c.9 0 1.64-.74 1.64-1.65v-1.64c0-.58-.23-1.1-.61-1.47l-5.54-5.92V5.96a1.03 1.03 0 10-2.05 0v1.02H8.62zm1.23 2.06a3.28 3.28 0 110 6.56 3.28 3.28 0 010-6.56z"/></symbol><symbol id="icon-quotes"><path d="M34.97 7.06L30.7 0C28.27 1.5 0 12.2 0 39.62c0 7.23.34 24.17 18.9 24.17 11.19 0 13.94-10.28 13.94-13.58 0-21.98-21.38-14.18-21.38-14.18 0-18.07 19.8-26.85 23.5-28.97zm43.7 0L74.42 0C71.98 1.5 43.7 12.2 43.7 39.62c0 7.23.33 24.17 18.9 24.17 11.18 0 13.93-10.28 13.93-13.58 0-21.98-21.38-14.18-21.38-14.18 0-18.07 19.8-26.85 23.51-28.97z"/></symbol><symbol id="icon-review-arrow-left"><path d="M2.04 20.86L21.47 1.45a.85.85 0 00-1.2-1.2L.25 20.26a.85.85 0 000 1.2l20.01 20.01a.84.84 0 001.2 0 .85.85 0 000-1.2L2.05 20.86z"/></symbol><symbol id="icon-review-arrow-right"><path d="M19.66 20.86L.25 1.45a.85.85 0 011.2-1.2l20 20.01c.34.33.34.87 0 1.2l-20 20.01a.84.84 0 01-1.2 0 .85.85 0 010-1.2l19.41-19.41z"/></symbol><symbol id="icon-timer"><path d="M264.57 102.06l5.35-5.36c7.72-7.72 9.13-18.94 3.13-24.93-6-6-17.22-4.6-24.94 3.12l-5.38 5.39A148.3 148.3 0 00168 48.3v-9.6h7.66c10.91 0 19.84-8.7 19.84-19.35S186.57 0 175.66 0h-53.32c-10.91 0-19.84 8.71-19.84 19.36s8.93 19.35 19.84 19.35H130v9.59C56.68 57.63 0 120.24 0 196.1c0 82.29 66.7 149 149 149 82.29 0 149-66.71 149-149 0-35.67-12.54-68.4-33.43-94.04zM149 306.25c-60.84 0-110.17-49.32-110.17-110.16S88.16 85.93 149 85.93s110.17 49.32 110.17 110.17S209.84 306.26 149 306.26z"/></symbol><symbol id="icon-twitter"><path fill-rule="evenodd" clip-rule="evenodd" d="M11.28.15c1.74-.48 3.08.27 3.69 1.15.7-.22 1.37-.47 2.07-.69 0 .84-.54 1.48-.88 1.73.7.17 1.34-.48 1.34-.48a2.9 2.9 0 01-1.61 1.98c-.24 6.59-3.27 10.95-10.38 10.82h-.46c-.43 0-4.3-.45-5.05-1.84 2.34.19 4.01-.42 4.83-1.15-.98-.3-2.76-.47-3.06-2.88.36.1.58.22 1.22.11C1.76 8.07.4 7.37.46 5.22c.3.32 1.1.52 1.38.46C1.12 5.44-.19 2.4.92.84 2.8 2.65 4.77 4.36 8.3 4.53c.22-2.24 1.17-3.74 3-4.38z"/></symbol><symbol id="icon-ye-input-disabled" viewBox="-82.36 4.88 21.7 16.09"><path d="M-60.95 5.17a1 1 0 00-1.42 0l-13.38 13.38-4.9-4.9a1 1 0 10-1.41 1.41l5.6 5.61a1 1 0 001.42 0l14.09-14c.39-.48.39-1.11 0-1.5z"/></symbol><symbol id="icon-ye-input" viewBox="-82.36 4.88 21.7 16.09"><path d="M-60.95 5.17a1 1 0 00-1.42 0l-13.38 13.38-4.9-4.9a1 1 0 10-1.41 1.41l5.6 5.61a1 1 0 001.42 0l14.09-14c.39-.48.39-1.11 0-1.5z"/></symbol><symbol id="icon-yes" viewBox="-82.36 4.88 21.7 16.09"><path d="M-60.95 5.17a1 1 0 00-1.42 0l-13.38 13.38-4.9-4.9a1 1 0 10-1.41 1.41l5.6 5.61a1 1 0 001.42 0l14.09-14c.39-.48.39-1.11 0-1.5z"/></symbol><symbol id="icon-youtube"><path d="M1.77 13.78C.8 14.26 0 13.76 0 12.68V1.28C0 .2.8-.3 1.77.19L13.92 6.1c.97.48.97 1.26 0 1.74L1.78 13.78z"/></symbol></svg>
